<?xml version="1.0" encoding="UTF-8"?><!DOCTYPE svg PUBLIC "-//W3C//DTD SVG 1.1//EN" "http://www.w3.org/Graphics/SVG/1.1/DTD/svg11.dtd"><svg xmlns="http://www.w3.org/2000/svg"><symbol id="icon-arr-sld_l" viewBox="0 0 451.847 451.847">
    <path d="M97.141 225.92c0-8.095 3.091-16.192 9.259-22.366L300.689 9.27c12.359-12.359 32.397-12.359 44.751 0 12.354 12.354 12.354 32.388 0 44.748L173.525 225.92l171.903 171.909c12.354 12.354 12.354 32.391 0 44.744-12.354 12.365-32.386 12.365-44.745 0l-194.29-194.281c-6.167-6.177-9.252-14.274-9.252-22.372z"/>
</symbol><symbol id="icon-arr-sld_r" viewBox="0 0 451.846 451.847">
    <path d="M345.441 248.292L151.154 442.573c-12.359 12.365-32.397 12.365-44.75 0-12.354-12.354-12.354-32.391 0-44.744L278.318 225.92 106.409 54.017c-12.354-12.359-12.354-32.394 0-44.748 12.354-12.359 32.391-12.359 44.75 0l194.287 194.284c6.177 6.18 9.262 14.271 9.262 22.366 0 8.099-3.091 16.196-9.267 22.373z"/>
</symbol><symbol id="icon-down" viewBox="12.8 -8.9 34.3 19.8">
    <path d="M28.3 10L13.5-4.7c-.9-.9-.9-2.6 0-3.5s2.6-.9 3.5 0l13 13 13-13c.9-.9 2.6-.9 3.5 0s.9 2.6 0 3.5L31.7 10c-.4.4-1.3.9-1.7.9-.4 0-1.3-.4-1.7-.9z"/>
</symbol><symbol id="icon-fb" viewBox="0 0 96.124 96.123">
    <path d="M72.089.02L59.624 0C45.62 0 36.57 9.285 36.57 23.656v10.907H24.037a1.96 1.96 0 0 0-1.96 1.961v15.803a1.96 1.96 0 0 0 1.96 1.96H36.57v39.876a1.96 1.96 0 0 0 1.96 1.96h16.352a1.96 1.96 0 0 0 1.96-1.96V54.287h14.654a1.96 1.96 0 0 0 1.96-1.96l.006-15.803a1.963 1.963 0 0 0-1.961-1.961H56.842v-9.246c0-4.444 1.059-6.7 6.848-6.7l8.397-.003a1.96 1.96 0 0 0 1.959-1.96V1.98A1.96 1.96 0 0 0 72.089.02z"/>
</symbol><symbol id="icon-geo" viewBox="0 0 512 512">
    <path d="M256 32c-74 0-134.2 58.7-134.2 132.7 0 16.4 3.5 34.3 9.8 50.4h-.1l.6 1.2 1.5 3.3L256 480l121.8-259.1.6-1.2c.5-1.1 1.1-2.2 1.6-3.4l.4-1.1c6.5-16.1 9.8-33.1 9.8-50.3C390.2 90.7 330 32 256 32zm0 174.9c-25.9 0-46.9-21-46.9-46.9s21-46.9 46.9-46.9 46.9 21 46.9 46.9-21 46.9-46.9 46.9z"/>
</symbol><symbol id="icon-gp" viewBox="0 0 491.858 491.858">
    <path d="M377.472 224.957H201.319v58.718H308.79c-16.032 51.048-63.714 88.077-120.055 88.077-69.492 0-125.823-56.335-125.823-125.824 0-69.492 56.333-125.823 125.823-125.823 34.994 0 66.645 14.289 89.452 37.346l42.622-46.328c-34.04-33.355-80.65-53.929-132.074-53.929C84.5 57.193 0 141.693 0 245.928s84.5 188.737 188.736 188.737c91.307 0 171.248-64.844 188.737-150.989v-58.718l-.001-.001z"/>
    <path d="M491.858 224.857h-36.031v-36.031h-30.886v36.031H388.91v30.883h36.031v36.032h30.886V255.74h36.031z"/>
</symbol><symbol id="icon-insta" viewBox="0 0 169.063 169.063">
    <path d="M122.406 0H46.654C20.929 0 0 20.93 0 46.655v75.752c0 25.726 20.929 46.655 46.654 46.655h75.752c25.727 0 46.656-20.93 46.656-46.655V46.655C169.063 20.93 148.133 0 122.406 0zm31.657 122.407c0 17.455-14.201 31.655-31.656 31.655H46.654C29.2 154.063 15 139.862 15 122.407V46.655C15 29.201 29.2 15 46.654 15h75.752c17.455 0 31.656 14.201 31.656 31.655v75.752z"/>
    <path d="M84.531 40.97c-24.021 0-43.563 19.542-43.563 43.563 0 24.02 19.542 43.561 43.563 43.561s43.563-19.541 43.563-43.561c0-24.021-19.542-43.563-43.563-43.563zm0 72.123c-15.749 0-28.563-12.812-28.563-28.561 0-15.75 12.813-28.563 28.563-28.563s28.563 12.813 28.563 28.563c0 15.749-12.814 28.561-28.563 28.561z"/>
    <path d="M129.921 28.251c-2.89 0-5.729 1.17-7.77 3.22a11.053 11.053 0 0 0-3.23 7.78c0 2.891 1.18 5.73 3.23 7.78 2.04 2.04 4.88 3.22 7.77 3.22 2.9 0 5.73-1.18 7.78-3.22 2.05-2.05 3.22-4.89 3.22-7.78 0-2.9-1.17-5.74-3.22-7.78-2.04-2.05-4.88-3.22-7.78-3.22z"/>
</symbol><symbol id="icon-star" viewBox="0 0 27 25">
    <title>
        Shape 6
    </title>
    <path d="M26.76 10.052l-8.97-1.264L13.78.879 9.76 8.788.79 10.052l6.49 6.159-1.53 8.691 8.03-4.103 8.02 4.103-1.53-8.691z"/>
</symbol><symbol id="icon-tw" viewBox="0 0 612 612">
    <path d="M612 116.258a250.714 250.714 0 0 1-72.088 19.772c25.929-15.527 45.777-40.155 55.184-69.411-24.322 14.379-51.169 24.82-79.775 30.48-22.907-24.437-55.49-39.658-91.63-39.658-69.334 0-125.551 56.217-125.551 125.513 0 9.828 1.109 19.427 3.251 28.606-104.326-5.24-196.835-55.223-258.75-131.174-10.823 18.51-16.98 40.078-16.98 63.101 0 43.559 22.181 81.993 55.835 104.479a125.556 125.556 0 0 1-56.867-15.756v1.568c0 60.806 43.291 111.554 100.693 123.104-10.517 2.83-21.607 4.398-33.08 4.398-8.107 0-15.947-.803-23.634-2.333 15.985 49.907 62.336 86.199 117.253 87.194-42.947 33.654-97.099 53.655-155.916 53.655-10.134 0-20.116-.612-29.944-1.721 55.567 35.681 121.536 56.485 192.438 56.485 230.948 0 357.188-191.291 357.188-357.188l-.421-16.253c24.666-17.593 46.005-39.697 62.794-64.861z"/>
</symbol></svg>